<?xml version="1.0" standalone="no"?>
<!DOCTYPE svg PUBLIC "-//W3C//DTD SVG 20010904//EN"
 "http://www.w3.org/TR/2001/REC-SVG-20010904/DTD/svg10.dtd">
<svg version="1.0" xmlns="http://www.w3.org/2000/svg"
 width="1000.000000pt" height="1000.000000pt" viewBox="0 0 1000.000000 1000.000000"
 preserveAspectRatio="xMidYMid meet">
<metadata>
Created by potrace 1.14, written by Peter Selinger 2001-2017
</metadata>
<g transform="translate(0.000000,1000.000000) scale(0.100000,-0.100000)"
fill="#000000" stroke="none">
<path d="M4779 9546 c-2 -2 -51 -7 -109 -10 -58 -4 -118 -9 -135 -11 -16 -2
-55 -6 -85 -10 -57 -6 -74 -8 -150 -21 -25 -4 -52 -8 -60 -9 -8 -1 -28 -5 -45
-8 -16 -4 -43 -9 -60 -12 -44 -7 -74 -14 -93 -19 -9 -3 -30 -8 -47 -11 -59
-10 -216 -52 -330 -87 -38 -12 -72 -23 -75 -23 -3 -1 -12 -5 -20 -8 -8 -4 -37
-14 -65 -23 -75 -24 -281 -107 -360 -144 -172 -80 -348 -171 -353 -182 -2 -5
-8 -8 -12 -8 -13 0 -178 -101 -273 -166 -43 -30 -82 -54 -87 -54 -5 0 -10 -4
-12 -8 -1 -4 -25 -23 -53 -42 -27 -19 -57 -43 -66 -52 -9 -10 -20 -18 -24 -18
-6 0 -67 -48 -135 -107 -14 -12 -36 -31 -50 -42 -191 -160 -479 -462 -616
-646 -16 -21 -36 -47 -44 -56 -27 -31 -37 -45 -49 -66 -6 -12 -17 -28 -26 -36
-16 -17 -151 -223 -181 -277 -10 -19 -22 -37 -25 -40 -4 -3 -19 -30 -35 -60
-15 -30 -32 -56 -36 -58 -4 -2 -8 -8 -8 -14 0 -5 -10 -24 -22 -41 -13 -18 -22
-33 -20 -35 1 -1 -22 -53 -51 -115 -59 -122 -107 -225 -107 -231 0 -2 -8 -21
-17 -42 -9 -22 -18 -43 -19 -49 -2 -5 -22 -62 -45 -125 -52 -143 -51 -142 -56
-160 -5 -22 -9 -33 -16 -50 -10 -24 -60 -213 -62 -235 -1 -11 -5 -27 -8 -35
-3 -8 -13 -49 -22 -90 -9 -41 -18 -84 -20 -95 -3 -11 -7 -38 -10 -60 -3 -22
-7 -47 -10 -55 -2 -8 -6 -35 -9 -60 -6 -44 -12 -92 -21 -160 -7 -54 -17 -168
-20 -240 -2 -36 -4 -67 -5 -70 -6 -14 3 -66 12 -71 11 -7 216 -4 263 4 125 22
180 44 460 182 293 145 335 160 494 182 82 11 273 5 287 -9 3 -3 -20 -54 -50
-114 -65 -130 -99 -204 -102 -222 -3 -19 -25 -43 -34 -37 -12 8 -108 8 -175 0
-110 -12 -306 -92 -510 -207 -33 -19 -98 -50 -145 -70 -73 -31 -110 -43 -225
-74 -11 -3 -76 -7 -145 -8 -125 -3 -125 -3 -124 -27 5 -113 21 -280 29 -287 2
-3 21 -6 42 -8 21 -1 43 -3 48 -4 6 -1 12 -2 15 -1 3 1 39 3 80 6 117 6 241
55 460 182 101 58 200 105 255 122 22 7 47 15 55 18 8 3 24 7 35 9 145 24 211
26 207 6 -1 -7 -4 -23 -6 -35 -3 -12 -5 -22 -6 -22 -2 0 -8 -24 -15 -60 -2
-11 -12 -59 -23 -107 -10 -48 -17 -90 -14 -93 3 -3 -1 -5 -9 -6 -153 -8 -251
-41 -439 -149 -197 -113 -220 -125 -275 -146 -27 -10 -52 -19 -55 -20 -3 0
-12 -3 -20 -6 -44 -17 -108 -25 -190 -24 l-91 1 7 -40 c6 -35 48 -204 72 -290
8 -29 10 -30 68 -29 32 0 77 4 99 8 36 6 223 90 235 105 3 3 25 20 50 36 167
110 316 169 437 174 66 3 63 5 63 -54 -3 -239 -3 -235 -30 -236 -59 -3 -89 -8
-147 -27 -67 -21 -190 -88 -245 -132 -10 -8 -58 -39 -105 -68 -95 -57 -186
-90 -260 -93 -57 -2 -67 -7 -55 -22 5 -7 15 -30 22 -52 7 -22 20 -56 28 -75 9
-19 17 -38 18 -42 1 -5 3 -11 4 -15 1 -5 2 -11 1 -15 0 -5 3 -8 9 -8 5 0 10
-4 10 -9 0 -19 45 -111 57 -115 27 -11 182 58 213 94 3 3 43 35 90 71 95 72
142 99 215 124 54 18 204 32 206 18 8 -74 15 -121 24 -163 17 -71 16 -79 -2
-79 -89 1 -190 -28 -257 -74 -30 -20 -86 -65 -156 -127 -64 -57 -190 -124
-190 -103 0 4 -5 2 -11 -4 -9 -9 -3 -26 21 -70 19 -32 38 -67 44 -78 6 -11 35
-57 65 -102 l53 -83 31 22 c18 12 50 39 72 59 22 20 58 54 80 74 96 87 247
165 322 165 22 0 25 3 19 28 -3 15 -9 38 -12 52 -3 14 -12 44 -19 68 -8 23
-17 59 -21 80 l-6 37 59 2 c32 1 70 4 86 7 15 3 39 8 55 12 41 8 135 34 157
44 111 48 247 119 265 139 3 4 21 18 40 32 74 56 76 59 77 129 0 36 3 79 6 95
7 44 46 142 80 205 28 52 125 195 150 222 7 7 41 51 77 98 35 47 67 87 70 90
3 3 17 21 30 40 13 19 27 37 30 40 12 11 80 118 101 160 27 54 46 132 43 181
-2 55 -14 157 -19 171 -2 7 -7 24 -9 38 -8 36 -19 79 -60 222 -64 225 -77 306
-79 488 -1 201 21 319 94 504 34 86 130 271 149 286 3 3 17 21 30 40 41 59 62
82 153 173 105 103 138 115 70 25 -26 -35 -51 -65 -55 -66 -5 -2 -6 -7 -3 -12
2 -4 -5 -19 -18 -33 -12 -15 -33 -48 -47 -74 -14 -26 -28 -50 -31 -53 -20 -18
-121 -266 -134 -330 -2 -8 -4 -15 -5 -15 -1 0 -3 -7 -5 -15 -52 -214 -50 -440
6 -665 25 -97 25 -96 31 -115 22 -58 82 -268 92 -320 3 -14 7 -36 10 -50 20
-90 28 -277 13 -297 -5 -7 -7 -13 -4 -13 9 0 -27 -99 -57 -158 -15 -29 -48
-83 -73 -120 -25 -37 -57 -83 -70 -102 -13 -19 -31 -41 -39 -50 -14 -14 -45
-56 -89 -116 -11 -15 -25 -32 -30 -38 -17 -17 -121 -177 -140 -215 -27 -54
-50 -121 -61 -181 -7 -35 -6 -160 2 -190 3 -14 7 -34 9 -45 9 -60 84 -242 157
-382 27 -51 45 -93 41 -93 -4 0 -32 -23 -62 -50 -29 -28 -57 -50 -62 -50 -5 0
-9 -4 -9 -8 0 -12 -175 -125 -258 -166 -70 -35 -214 -88 -277 -101 -53 -12
-184 -18 -202 -10 -10 5 -21 8 -25 7 -13 -3 -46 48 -74 115 -37 89 -42 95 -78
90 -52 -7 -116 -30 -116 -40 0 -6 -3 -8 -6 -4 -11 10 -84 -46 -175 -134 -48
-46 -99 -95 -114 -108 -15 -13 -24 -26 -19 -30 5 -3 22 -24 39 -46 16 -22 31
-42 35 -45 3 -3 17 -21 32 -40 14 -19 46 -57 71 -85 l45 -50 33 40 c84 101
229 231 243 218 3 -4 6 -2 6 4 0 6 20 18 44 26 51 18 49 19 91 -63 15 -30 34
-64 41 -74 13 -18 9 -22 -46 -48 -65 -31 -148 -108 -223 -205 l-47 -61 125
-119 c69 -65 131 -119 138 -120 6 -2 23 16 37 39 33 56 188 210 208 206 8 -2
20 -11 26 -22 6 -10 22 -31 35 -45 58 -64 58 -62 -11 -132 -35 -35 -81 -90
-102 -123 l-39 -58 29 -24 c16 -13 36 -30 44 -37 20 -19 246 -177 252 -177 2
0 5 6 6 13 4 54 95 277 114 277 4 0 7 3 6 8 -2 10 35 72 45 72 4 0 7 5 7 11 0
6 10 24 23 39 12 15 29 37 37 50 8 12 20 28 25 34 25 29 138 196 154 228 8 16
18 28 23 28 4 0 8 9 8 19 0 11 4 21 8 23 16 6 73 169 79 226 10 93 4 196 -13
224 -3 4 -2 8 3 8 10 0 68 -120 89 -185 25 -79 22 -226 -6 -300 -6 -17 -12
-32 -12 -35 -1 -11 -11 -37 -26 -70 -9 -19 -17 -37 -17 -40 -2 -13 -49 -96
-57 -101 -5 -3 -8 -8 -6 -10 1 -2 -38 -71 -89 -154 -50 -82 -106 -181 -124
-220 -17 -38 -38 -82 -46 -97 -8 -16 -12 -28 -9 -28 3 0 1 -12 -5 -27 -6 -16
-13 -47 -16 -71 -6 -45 1 -54 62 -88 114 -62 175 -94 182 -94 8 0 14 33 16 88
1 12 4 22 7 22 3 0 6 8 6 18 2 27 11 62 32 122 32 88 49 125 140 305 221 437
244 495 247 638 2 54 -2 112 -7 130 -25 77 -73 194 -90 216 -10 13 -18 28 -18
32 0 5 -25 49 -55 98 -30 49 -55 94 -55 100 0 6 -4 11 -8 11 -5 0 -15 12 -23
27 -8 16 -18 33 -22 38 -26 31 -147 261 -161 305 -5 14 -9 27 -10 30 -6 14
-30 98 -34 120 -9 49 -5 226 7 269 26 95 123 273 200 367 14 17 35 44 46 60
11 15 27 35 35 44 25 26 125 161 167 227 36 55 52 88 94 198 23 60 17 217 -16
370 -7 32 -60 197 -75 230 -23 53 -58 164 -52 169 3 3 1 6 -5 6 -5 0 -10 6
-10 13 0 6 -10 46 -22 88 -11 43 -23 92 -26 110 -2 19 -8 52 -12 74 -4 22 -7
108 -7 190 1 163 20 278 70 424 33 97 111 256 142 289 6 7 12 17 12 21 0 4 9
17 20 29 12 12 18 22 16 22 -8 0 49 64 139 156 43 46 83 80 87 78 4 -3 8 -1 8
4 0 5 18 21 40 36 29 19 40 22 40 12 0 -8 -3 -16 -8 -18 -4 -1 -32 -37 -63
-78 -167 -224 -251 -410 -294 -655 -24 -140 -23 -313 5 -465 11 -65 14 -76 47
-180 9 -30 18 -59 19 -65 2 -5 21 -57 44 -115 23 -58 43 -112 46 -120 2 -8 15
-47 28 -85 14 -39 28 -86 31 -104 3 -19 8 -38 11 -43 3 -5 8 -21 10 -36 2 -15
7 -47 11 -72 9 -58 9 -223 1 -276 -10 -59 -67 -204 -80 -204 -5 0 -8 -5 -8
-11 0 -10 -67 -117 -80 -129 -3 -3 -23 -30 -45 -60 -22 -30 -52 -68 -66 -85
-15 -16 -45 -55 -68 -85 -22 -30 -44 -59 -48 -65 -24 -29 -82 -126 -103 -170
-36 -77 -58 -176 -55 -246 3 -86 16 -168 26 -175 5 -3 9 -11 9 -18 0 -8 7 -31
16 -52 9 -22 16 -40 16 -41 -3 -8 106 -191 193 -327 56 -89 122 -197 147 -241
49 -90 101 -222 92 -236 -3 -5 -1 -9 5 -9 5 0 10 -8 10 -17 0 -21 9 -114 11
-128 1 -6 2 -12 1 -15 -1 -3 -4 -27 -6 -54 -4 -55 -35 -161 -67 -233 -11 -26
-22 -52 -24 -58 -2 -10 -96 -187 -154 -290 -68 -122 -137 -271 -165 -355 -10
-30 -20 -62 -23 -70 -13 -38 -22 -87 -28 -155 -5 -50 -3 -63 11 -75 10 -8 20
-14 22 -12 2 1 20 -5 41 -14 49 -21 215 -84 222 -84 4 0 5 30 5 67 -2 78 17
193 46 282 20 62 80 203 120 283 22 43 39 81 38 84 0 4 3 10 8 13 5 3 18 24
29 46 11 22 42 83 69 135 27 52 49 97 50 100 1 3 11 26 23 52 25 53 42 95 47
118 3 8 11 40 19 70 29 105 22 224 -22 345 -32 91 -129 275 -144 275 -4 0 -8
5 -8 11 0 5 -43 75 -96 155 -188 286 -252 441 -258 624 -3 77 28 214 56 247 6
7 7 13 3 13 -12 0 91 165 147 235 5 6 43 53 85 105 139 173 215 304 247 427
16 61 19 236 5 303 -5 25 -11 56 -13 70 -12 75 -49 177 -163 440 -45 104 -91
224 -98 254 -1 6 -5 18 -8 26 -3 8 -8 29 -11 45 -4 17 -9 41 -12 55 -13 58
-15 82 -18 221 -5 211 32 380 124 569 64 130 141 240 239 337 146 146 176 168
187 138 5 -12 -16 -45 -113 -181 -27 -36 -114 -204 -106 -204 3 0 1 -6 -4 -12
-10 -13 -50 -126 -57 -164 -3 -10 -9 -40 -15 -65 -15 -66 -22 -123 -26 -219
-2 -47 -5 -87 -6 -90 -1 -3 -1 -7 -1 -10 9 -149 35 -287 76 -397 16 -43 27
-77 27 -80 0 -2 16 -38 35 -80 56 -123 60 -132 112 -253 59 -139 102 -261 118
-337 24 -118 23 -110 24 -218 0 -142 -19 -220 -87 -358 -29 -59 -105 -182
-122 -197 -3 -3 -28 -34 -56 -70 -27 -36 -53 -66 -57 -68 -5 -2 -8 -8 -8 -14
0 -6 -8 -18 -18 -27 -9 -9 -33 -41 -53 -71 -149 -228 -162 -428 -43 -674 47
-98 71 -137 195 -324 60 -90 109 -167 109 -173 0 -5 3 -9 8 -9 4 0 12 -10 18
-23 6 -12 23 -43 38 -69 29 -52 82 -179 90 -218 3 -14 10 -42 15 -63 12 -50
12 -185 -1 -239 -5 -24 -11 -52 -14 -62 -11 -58 -56 -170 -120 -303 -24 -51
-44 -96 -44 -102 0 -5 -4 -11 -9 -13 -5 -1 -11 -10 -13 -18 -2 -8 -5 -17 -8
-20 -3 -3 -18 -34 -35 -70 -16 -36 -33 -66 -37 -68 -5 -2 -8 -8 -8 -13 0 -5
-7 -26 -17 -47 -9 -20 -17 -39 -18 -42 -1 -3 -11 -25 -22 -50 -24 -54 -60
-164 -67 -203 -3 -15 -7 -35 -10 -45 -13 -40 -24 -218 -16 -249 1 -5 3 -15 4
-23 1 -18 39 -31 176 -60 58 -12 115 -25 128 -28 23 -4 23 -4 18 74 -3 44 -6
81 -7 84 -1 3 0 10 1 15 1 6 4 39 6 75 6 104 52 300 91 390 3 8 7 17 8 20 1 3
9 22 18 44 9 21 17 40 17 42 0 3 38 82 84 177 91 187 130 269 131 277 0 3 6
14 12 25 6 11 23 62 38 114 29 101 40 238 23 300 -5 18 -11 42 -13 53 -10 48
-113 278 -135 298 -5 5 -115 170 -135 202 -5 9 -35 54 -66 100 -190 283 -237
422 -218 648 2 30 31 126 47 155 20 37 95 158 102 165 3 3 18 23 35 45 16 22
37 49 47 59 10 11 30 38 45 60 16 23 33 47 40 53 53 57 122 213 148 336 15 69
20 81 48 97 33 21 69 21 142 0 22 -6 45 -12 50 -13 6 -1 15 -5 20 -9 10 -6 54
-15 125 -25 116 -16 233 -3 385 42 57 16 101 24 122 20 35 -6 75 -42 79 -71 5
-39 17 -95 29 -138 18 -66 136 -272 174 -306 6 -5 40 -49 113 -145 158 -209
199 -391 132 -600 -20 -65 -66 -169 -76 -173 -4 -2 -8 -8 -8 -14 0 -11 -101
-177 -137 -224 -12 -17 -23 -36 -23 -42 0 -6 -4 -12 -8 -14 -10 -4 -90 -123
-147 -218 -56 -93 -120 -228 -130 -274 -2 -12 -7 -32 -10 -46 -23 -90 -8 -288
26 -353 6 -10 12 -26 14 -36 4 -23 32 -86 112 -251 86 -177 127 -263 129 -272
1 -5 3 -11 4 -15 1 -5 2 -11 1 -15 0 -5 3 -8 9 -8 5 0 10 -8 10 -18 0 -10 4
-22 9 -28 8 -8 57 -152 66 -194 2 -8 4 -17 5 -20 1 -3 2 -8 1 -12 0 -4 3 -18
8 -30 22 -57 34 -291 20 -372 l-7 -38 32 7 c17 3 42 8 56 11 14 2 45 9 70 14
25 6 56 13 70 16 14 3 32 7 40 9 8 2 20 4 27 4 6 1 19 8 27 17 13 12 15 36 12
132 -4 118 -6 132 -31 225 -32 122 -94 266 -213 500 -39 76 -71 140 -71 142
-1 3 -12 29 -25 57 -42 92 -54 126 -75 200 -45 162 -44 271 3 421 16 50 66
168 76 177 3 3 16 25 29 50 30 56 130 210 148 228 7 7 13 19 13 27 0 7 4 15 9
17 24 8 204 326 215 379 2 8 6 21 9 29 3 8 11 41 17 73 41 209 -33 406 -246
654 -42 48 -54 63 -49 63 2 0 -7 12 -20 26 -14 15 -25 31 -25 36 0 5 -9 18
-20 30 -52 56 -134 256 -147 358 -7 61 -7 186 0 235 13 90 60 267 77 290 4 6
13 28 20 50 7 21 24 64 38 95 14 30 26 57 27 60 1 3 14 32 29 65 47 102 125
295 119 295 -3 0 -1 6 5 13 11 14 50 164 60 234 12 87 2 398 -13 423 -2 4 -7
22 -10 41 -6 36 -32 134 -42 159 -3 8 -7 22 -9 30 -11 57 -137 274 -228 393
-22 29 -24 36 -12 46 23 19 145 -85 257 -220 30 -36 60 -74 66 -85 7 -10 23
-35 36 -55 69 -104 149 -309 172 -439 24 -141 26 -440 2 -440 -5 0 -6 -4 -3
-8 11 -19 -86 -330 -108 -344 -6 -4 -8 -8 -4 -8 6 0 -17 -57 -74 -180 -27 -57
-109 -290 -103 -290 2 0 0 -11 -4 -24 -11 -29 -25 -143 -25 -211 0 -209 65
-339 337 -675 89 -109 158 -231 192 -335 27 -85 31 -236 9 -317 -8 -29 -16
-57 -18 -63 -10 -42 -50 -135 -57 -135 -5 0 -9 -7 -9 -15 0 -8 -13 -37 -30
-65 -16 -28 -30 -55 -30 -60 0 -6 -4 -10 -10 -10 -5 0 -12 -11 -16 -25 -3 -14
-9 -25 -13 -25 -4 0 -13 -12 -20 -27 -7 -16 -19 -35 -27 -43 -8 -8 -36 -49
-61 -90 -26 -41 -50 -77 -54 -80 -3 -3 -12 -17 -20 -31 -8 -15 -30 -55 -49
-90 -80 -147 -119 -282 -115 -392 5 -119 49 -243 167 -475 170 -331 193 -380
248 -527 4 -11 13 -38 19 -60 5 -22 13 -51 17 -65 10 -34 13 -70 15 -162 1
-76 9 -92 34 -70 6 4 28 14 50 21 22 8 51 18 65 24 14 6 30 11 35 13 6 2 36
13 67 26 l57 23 -4 60 c-4 68 -39 214 -61 257 -8 15 -14 29 -14 30 4 11 -95
218 -151 318 -266 468 -298 660 -161 950 32 67 141 257 163 284 15 18 55 80
85 132 15 27 31 51 35 54 4 3 29 48 56 100 71 138 107 258 106 355 -1 62 -7
125 -12 125 -3 0 -7 11 -7 24 -2 35 -59 150 -116 234 -45 67 -175 239 -205
270 -44 46 -141 205 -178 293 -35 83 -40 112 -39 239 0 135 2 157 20 230 7 30
16 69 19 85 6 37 29 102 38 111 4 4 7 17 7 29 0 12 3 25 8 29 4 4 7 11 8 14 0
4 5 18 11 32 6 14 16 43 24 65 7 22 16 45 20 50 16 24 76 222 94 313 3 12 8
34 11 50 3 15 7 92 9 172 3 129 -1 184 -21 295 -3 17 -7 46 -11 65 -3 19 -8
37 -12 40 -3 3 -7 14 -9 25 -5 30 -28 94 -53 150 -13 28 -23 52 -24 55 0 3
-17 33 -38 68 -20 35 -37 65 -37 68 0 3 -4 10 -10 17 -28 35 -170 229 -170
233 0 17 121 -77 194 -151 205 -205 342 -483 381 -770 13 -96 7 -337 -10 -415
-3 -14 -8 -36 -11 -50 -10 -51 -26 -107 -52 -185 -14 -44 -27 -82 -27 -85 -1
-3 -5 -13 -8 -22 -10 -26 -18 -52 -18 -58 -1 -3 -5 -10 -9 -15 -5 -6 -11 -22
-13 -35 -3 -14 -12 -43 -21 -65 -39 -102 -60 -217 -61 -340 0 -122 22 -202 80
-295 14 -22 25 -42 25 -45 0 -3 5 -11 10 -18 6 -7 40 -52 77 -102 37 -49 72
-95 77 -101 6 -7 20 -24 31 -40 11 -15 26 -33 33 -40 6 -7 12 -15 12 -18 0 -6
24 -36 48 -61 6 -8 12 -16 12 -20 0 -3 11 -21 24 -38 25 -33 104 -186 112
-216 2 -9 10 -41 17 -71 44 -176 -22 -407 -193 -680 -175 -280 -217 -355 -255
-462 -21 -59 -30 -98 -38 -179 -3 -25 15 -152 23 -168 5 -9 19 -45 31 -81 21
-61 166 -358 187 -383 6 -7 10 -14 10 -17 0 -3 23 -52 50 -110 67 -142 85
-185 97 -230 1 -3 4 -12 8 -20 15 -38 38 -153 33 -166 -3 -8 -1 -14 3 -14 5 0
7 -9 4 -21 -5 -19 0 -18 58 15 35 19 91 49 124 67 33 17 63 36 67 43 30 45
-67 289 -194 486 -51 80 -75 122 -143 244 -94 172 -117 374 -58 516 3 8 7 17
8 20 6 16 37 79 50 100 15 24 16 24 9 -20 -23 -152 6 -306 80 -431 15 -24 32
-56 38 -71 7 -16 16 -28 20 -28 4 0 8 -6 8 -14 0 -8 4 -16 8 -18 5 -2 23 -25
42 -53 18 -27 36 -52 40 -55 23 -19 180 -257 222 -335 20 -38 68 -178 68 -199
0 -19 14 -21 32 -3 7 7 27 22 43 33 28 17 99 68 135 97 8 7 39 30 67 51 57 43
56 39 10 110 -36 57 -140 166 -158 166 -10 0 14 41 43 75 10 11 29 33 41 49
l24 30 34 -24 c49 -35 98 -85 161 -167 50 -65 56 -70 70 -55 8 10 65 64 126
122 62 58 112 110 112 116 0 6 -9 19 -20 29 -11 10 -20 22 -20 27 0 14 -74 92
-164 173 -6 6 -33 21 -61 34 -62 30 -60 28 -46 44 6 8 22 34 35 58 13 25 29
56 37 69 8 14 15 27 16 28 3 7 123 -51 123 -59 0 -5 6 -9 13 -9 14 0 137 -117
200 -190 l39 -45 36 41 c41 46 162 199 175 221 8 13 -51 76 -191 205 -43 40
-136 96 -173 104 -91 20 -95 19 -112 -24 -55 -138 -77 -167 -134 -178 -34 -6
-128 -1 -188 11 -145 28 -364 133 -510 244 -83 63 -93 72 -132 109 l-34 34 24
41 c24 41 100 187 102 197 2 8 16 43 25 65 71 168 88 322 49 457 -7 24 -13 45
-14 48 -4 16 -31 69 -46 90 -9 14 -16 27 -16 30 1 4 -46 79 -66 105 -4 6 -27
37 -52 70 -24 33 -48 65 -52 70 -5 6 -24 30 -42 55 -19 25 -39 50 -45 55 -6 6
-15 18 -21 26 -5 9 -34 51 -63 94 -43 64 -104 175 -107 195 -1 3 -7 23 -15 45
-21 60 -17 319 5 355 3 5 7 25 9 43 2 18 16 72 31 120 15 48 28 93 29 99 2 7
17 58 34 113 17 55 33 114 36 130 4 17 9 41 12 55 22 110 30 269 19 380 -4 30
-7 62 -7 70 -3 61 -66 270 -115 380 -27 60 -122 232 -133 240 -4 3 -15 20 -24
38 -9 17 -21 32 -26 32 -5 0 -11 8 -14 18 -3 9 -17 30 -31 46 -14 16 -23 31
-20 34 13 14 164 -129 238 -225 61 -80 164 -250 172 -283 0 -3 11 -27 24 -55
12 -27 24 -58 26 -68 2 -9 7 -22 10 -27 3 -5 8 -18 10 -27 2 -10 11 -43 20
-73 9 -30 18 -71 20 -90 3 -19 8 -57 12 -85 19 -117 1 -340 -38 -500 -11 -44
-21 -88 -23 -97 -1 -10 -5 -21 -9 -24 -4 -4 -7 -17 -7 -29 0 -12 -3 -25 -7
-29 -4 -3 -8 -12 -9 -19 -1 -7 -7 -32 -15 -57 -7 -25 -13 -49 -15 -55 -1 -5
-7 -29 -13 -51 -34 -124 -33 -276 1 -360 24 -59 123 -215 140 -222 4 -2 8 -8
8 -13 0 -5 8 -17 18 -27 9 -10 26 -31 37 -46 11 -16 25 -33 30 -40 6 -6 24
-29 40 -51 17 -22 38 -49 47 -59 10 -11 46 -63 81 -115 125 -189 158 -275 159
-415 0 -53 3 -62 31 -88 18 -16 52 -44 77 -61 25 -17 47 -34 50 -37 10 -13
215 -110 232 -110 9 0 19 -4 22 -9 3 -4 20 -12 38 -16 18 -4 40 -9 48 -12 43
-11 128 -24 183 -27 25 -1 49 -5 52 -8 6 -6 -17 -103 -46 -192 -10 -33 -19
-60 -19 -61 0 -1 23 -5 50 -8 28 -3 56 -10 63 -14 6 -4 14 -8 17 -8 19 -3 80
-31 80 -37 0 -4 6 -8 13 -8 13 0 129 -93 198 -157 55 -52 96 -83 110 -83 12 0
111 152 178 273 24 43 25 47 11 47 -5 0 -34 9 -63 20 -37 14 -93 53 -173 120
-65 55 -125 100 -131 100 -7 0 -13 3 -13 8 0 7 -27 21 -84 42 -27 10 -70 17
-138 22 -33 3 -33 3 -13 99 12 64 21 113 24 141 1 8 121 4 160 -6 47 -11 97
-29 128 -47 64 -36 119 -73 139 -93 11 -12 27 -25 36 -31 17 -12 98 -71 113
-83 13 -10 89 -38 126 -46 25 -6 29 -1 73 102 26 59 52 116 57 127 13 29 39
106 39 116 0 5 -9 7 -21 6 -24 -4 -117 11 -149 23 -3 1 -9 2 -14 1 -5 -1 -16
5 -25 13 -9 8 -19 15 -24 15 -17 1 -78 38 -189 112 -159 107 -244 144 -363
155 -27 3 -50 6 -52 7 -1 2 -3 65 -4 141 -1 94 3 141 10 146 12 7 166 -11 179
-21 1 -1 5 -2 10 -3 56 -13 189 -77 246 -119 37 -26 149 -94 196 -117 86 -43
149 -62 227 -66 l73 -3 14 52 c36 126 43 156 51 197 2 14 9 43 14 65 6 22 8
41 6 44 -3 2 -44 4 -92 4 -48 0 -110 6 -138 14 -27 8 -61 16 -74 19 -13 3 -42
14 -64 24 -23 11 -47 20 -54 20 -7 0 -13 5 -13 10 0 6 -5 10 -11 10 -6 0 -25
10 -42 22 -18 13 -32 21 -32 19 0 -3 -19 8 -42 22 -24 15 -47 27 -53 27 -5 0
-10 3 -10 8 0 4 -10 12 -23 17 -12 6 -44 23 -72 37 -125 65 -214 91 -336 97
-12 1 -19 15 -25 49 -4 26 -8 49 -9 52 -10 44 -18 87 -17 93 1 4 -2 16 -7 26
-6 10 -13 31 -16 47 -3 16 -7 36 -9 44 -5 22 12 29 58 24 23 -2 59 -6 81 -8
122 -13 254 -66 445 -177 42 -24 94 -53 115 -64 22 -11 43 -24 47 -30 4 -5 8
-7 8 -3 0 4 24 -4 53 -16 45 -20 72 -29 137 -43 74 -16 241 -16 256 0 1 1 5
34 8 72 13 144 17 181 21 200 7 34 -7 40 -105 41 -139 1 -234 17 -325 55 -16
6 -35 13 -41 14 -11 3 -80 37 -304 152 -41 21 -78 43 -82 48 -4 6 -8 7 -8 2 0
-4 -21 4 -48 17 -26 13 -68 30 -92 37 -51 14 -46 13 -85 22 -67 16 -84 18
-171 17 l-90 0 -13 38 c-8 20 -36 84 -64 142 -28 58 -50 108 -49 113 1 4 -1 7
-6 7 -8 0 -36 59 -30 65 16 16 227 24 298 11 19 -3 49 -8 65 -11 82 -15 212
-68 430 -175 237 -117 320 -151 419 -172 69 -14 278 -18 294 -5 9 7 11 33 7
96 -8 138 -15 219 -20 259 -2 20 -7 57 -10 82 -7 54 -32 213 -40 255 -23 119
-39 193 -62 280 -14 55 -26 105 -28 110 -1 6 -4 17 -7 25 -3 8 -16 49 -28 90
-12 41 -25 84 -30 95 -4 11 -29 79 -56 150 -66 180 -187 452 -209 467 -5 4 -7
8 -3 8 14 0 -274 486 -302 510 -3 3 -39 50 -79 105 -40 55 -87 117 -104 138
-18 21 -40 48 -50 60 -17 22 -77 91 -131 150 -91 102 -265 272 -375 367 -35
30 -70 61 -77 68 -7 6 -15 12 -19 12 -3 0 -19 14 -35 30 -16 17 -34 30 -39 30
-5 0 -11 3 -13 8 -1 4 -30 27 -63 51 -33 25 -62 47 -65 51 -3 3 -23 17 -45 30
-22 13 -42 27 -45 30 -8 9 -135 92 -240 155 -130 79 -416 226 -424 218 -3 -3
-6 -1 -6 5 0 7 -4 12 -10 12 -5 0 -38 13 -72 28 -68 31 -180 77 -188 77 -3 0
-11 4 -17 8 -7 5 -21 10 -30 12 -10 2 -48 15 -85 29 -38 14 -68 23 -68 19 0
-3 -6 -1 -12 4 -7 5 -42 17 -78 27 -36 10 -73 22 -83 28 -11 5 -21 7 -24 4 -3
-2 -17 0 -32 6 -22 9 -133 37 -211 54 -98 21 -231 46 -260 49 -19 2 -53 6 -75
10 -48 8 -77 11 -170 20 -38 3 -88 9 -110 11 -51 6 -550 15 -556 10z m231
-296 c0 -5 11 -33 24 -62 22 -51 37 -87 41 -98 1 -3 13 -31 28 -64 15 -32 27
-65 27 -72 0 -8 5 -14 10 -14 6 0 10 -6 10 -13 0 -13 73 -183 82 -193 5 -4 39
-7 218 -19 108 -8 210 -15 245 -18 17 -2 52 -4 80 -5 l50 -2 -49 -42 c-27 -24
-62 -55 -79 -70 -16 -16 -33 -28 -39 -28 -5 0 -6 -4 -3 -10 3 -5 2 -10 -3 -10
-4 0 -22 -12 -39 -27 -17 -16 -59 -53 -94 -83 -152 -133 -142 -119 -119 -175
4 -11 16 -40 25 -65 9 -25 22 -58 29 -75 15 -35 47 -119 72 -190 9 -27 21 -54
25 -60 3 -5 10 -25 14 -42 3 -18 10 -33 13 -33 4 0 28 20 53 43 25 23 60 53
78 67 17 14 42 33 53 43 12 9 25 17 29 17 4 0 14 6 21 13 38 37 302 167 340
167 8 0 18 4 24 9 8 7 95 33 155 47 10 2 28 6 39 9 48 12 93 20 183 31 l48 6
-45 -71 c-26 -39 -46 -75 -46 -80 0 -5 -4 -11 -10 -13 -25 -8 -270 -531 -270
-577 0 -5 12 1 26 14 15 14 33 25 40 25 8 0 14 4 14 9 0 22 239 144 355 181
39 12 77 25 85 28 17 6 17 6 91 21 71 15 91 18 162 26 67 7 67 11 2 -75 -51
-67 -185 -259 -185 -265 0 -2 -17 -30 -38 -62 -51 -78 -104 -174 -174 -315
-32 -65 -62 -119 -68 -119 -35 -5 -35 -5 -148 48 -104 48 -283 116 -387 148
-49 15 -97 29 -105 32 -8 3 -22 7 -30 9 -8 1 -55 12 -105 24 -107 26 -117 28
-169 36 -22 3 -43 7 -46 9 -3 2 -34 6 -70 10 -36 4 -68 9 -71 10 -18 11 -215
20 -429 19 -228 -1 -272 -3 -405 -20 -27 -4 -61 -8 -75 -9 -14 -1 -40 -6 -58
-10 -19 -4 -43 -8 -55 -10 -51 -8 -96 -18 -152 -32 -33 -8 -67 -16 -75 -17
-42 -8 -305 -90 -360 -113 -8 -3 -17 -7 -20 -8 -27 -7 -80 -30 -80 -35 0 -4
-6 -7 -12 -7 -7 0 -39 -12 -71 -26 -31 -15 -59 -27 -62 -27 -3 0 -20 -9 -38
-19 -62 -35 -75 -24 -149 128 -69 140 -119 232 -129 241 -3 3 -19 28 -35 55
-30 53 -173 267 -184 275 -3 3 -17 21 -30 40 -13 19 -34 47 -48 62 l-24 27 48
-4 c230 -18 419 -80 656 -214 16 -9 28 -19 28 -23 0 -5 7 -8 15 -8 8 0 15 -4
15 -10 0 -5 7 -10 15 -10 8 0 15 -3 15 -8 0 -9 40 -35 46 -30 3 4 -44 130 -83
221 -31 73 -139 280 -182 350 -22 37 -41 70 -41 73 0 3 -11 20 -24 37 -41 56
-41 56 16 52 173 -15 484 -110 609 -187 25 -15 49 -28 52 -28 7 0 121 -75 149
-99 63 -50 115 -97 131 -115 24 -27 21 -32 108 199 40 105 77 204 84 220 35
87 37 76 -17 125 -28 25 -68 61 -90 80 -22 19 -52 46 -68 60 -15 14 -58 52
-95 85 -151 132 -143 124 -115 126 69 4 114 7 210 14 58 4 119 9 137 9 18 1
35 4 38 8 4 3 20 2 36 -2 16 -5 29 -5 29 -1 0 4 23 7 51 6 40 0 55 5 72 23 12
13 21 27 20 30 0 4 6 23 14 42 8 19 31 73 50 120 19 47 43 103 53 125 59 132
68 154 62 159 -3 3 -1 6 5 6 6 0 13 9 16 21 5 20 27 19 27 -1z m-3467 -1902
c76 -54 158 -135 223 -220 27 -35 51 -65 54 -68 3 -3 15 -25 28 -49 12 -24 29
-55 37 -70 37 -67 89 -221 110 -323 l5 -27 48 27 c141 83 321 143 472 159 118
13 317 3 380 -19 8 -3 48 -15 88 -27 39 -12 72 -26 72 -32 0 -5 -4 -9 -8 -9
-4 0 -17 -7 -27 -15 -73 -56 -132 -101 -141 -110 -6 -5 -33 -28 -60 -50 -93
-78 -199 -181 -334 -324 -14 -15 -43 -49 -65 -75 -22 -27 -45 -54 -50 -60 -12
-13 -110 -145 -144 -194 -19 -28 -28 -33 -50 -28 -14 3 -57 12 -96 20 -76 17
-252 19 -320 3 -22 -5 -47 -10 -56 -12 -38 -8 -165 -48 -174 -55 -5 -4 -21
-11 -35 -15 -14 -4 -62 -25 -108 -46 -46 -22 -85 -39 -87 -39 -1 0 -43 -19
-91 -41 -49 -23 -93 -42 -99 -43 -5 -1 -14 -4 -20 -7 -23 -14 -151 -51 -177
-51 -16 -1 -31 -4 -33 -8 -5 -8 -170 -3 -212 7 l-32 8 59 65 c110 121 190 215
265 315 33 44 65 86 72 92 28 30 170 265 222 367 95 186 163 383 186 541 4 22
9 51 11 65 3 14 7 97 9 185 2 88 4 163 4 167 1 3 9 9 19 11 9 3 19 5 20 6 2 0
18 -9 35 -21z m6968 6 c14 -17 18 -64 6 -81 -4 -6 -3 -14 3 -18 6 -3 8 -10 6
-14 -11 -16 -4 -195 9 -261 2 -13 7 -40 10 -60 42 -281 237 -685 472 -980 24
-30 50 -62 56 -70 60 -76 124 -151 219 -254 47 -52 51 -66 19 -66 -10 0 -21
-3 -25 -7 -10 -10 -166 -10 -201 0 -16 4 -41 10 -55 13 -65 12 -186 58 -320
121 -41 19 -118 53 -170 75 -52 21 -104 43 -115 48 -31 14 -154 48 -215 59
-57 10 -266 8 -310 -3 -14 -3 -36 -9 -50 -12 -14 -3 -29 -6 -35 -7 -5 -2 -15
-6 -21 -10 -8 -4 -24 12 -44 43 -30 47 -76 109 -102 139 -7 8 -20 24 -28 36
-57 84 -325 361 -450 465 -97 80 -108 89 -155 125 -22 16 -46 35 -53 42 -7 7
-20 13 -29 13 -51 0 63 51 147 66 8 2 43 8 78 15 110 20 313 15 411 -11 20 -5
47 -11 61 -14 66 -12 236 -83 321 -135 l36 -21 8 32 c4 18 7 36 6 40 -6 37
133 363 169 398 3 3 14 19 24 35 41 64 245 269 246 247 0 -4 5 0 10 8 11 20
45 22 61 4z m-3340 -261 c41 -7 83 -15 94 -17 60 -11 220 -83 292 -131 142
-96 272 -266 290 -378 4 -25 2 -29 -14 -24 -161 52 -276 63 -398 37 -142 -30
-263 -112 -286 -193 -17 -58 -18 -68 -23 -182 -5 -143 26 -315 59 -315 21 0
53 38 87 105 16 33 35 63 42 67 15 11 61 10 88 -1 71 -29 81 -31 147 -35 70
-4 132 10 176 40 35 23 38 24 69 9 33 -16 46 -33 66 -90 11 -28 15 -158 6
-200 -2 -11 -7 -41 -10 -67 -9 -60 -59 -214 -93 -287 -15 -31 -26 -59 -25 -63
1 -5 -2 -8 -8 -8 -5 0 -10 -5 -10 -10 0 -6 -19 -41 -42 -78 -191 -306 -436
-483 -672 -485 -145 -1 -240 31 -381 131 -73 52 -245 228 -245 251 0 5 -4 11
-8 13 -5 2 -36 48 -69 103 -119 200 -184 399 -186 575 -2 200 47 252 184 194
76 -31 138 -37 216 -17 32 8 63 15 70 17 7 1 16 5 19 9 12 12 87 8 110 -6 85
-49 102 -56 112 -44 30 35 37 253 12 360 -11 48 -21 65 -57 97 -41 36 -118 78
-173 96 -121 38 -293 36 -402 -6 -69 -26 -71 -26 -64 13 9 46 8 46 46 117 40
73 158 199 238 253 73 49 193 106 241 114 14 2 32 8 41 13 10 5 32 12 51 15
19 3 47 8 64 11 16 3 31 6 32 8 10 9 252 1 314 -11z m-751 -657 c101 -18 222
-96 236 -153 8 -31 2 -36 -30 -23 -15 5 -37 12 -49 14 -12 3 -33 8 -47 12 -14
3 -62 8 -106 9 -84 4 -155 -11 -196 -40 -31 -21 -36 -20 -58 18 -73 119 47
197 250 163z m1336 -4 c22 -7 48 -20 58 -31 32 -36 31 -95 -3 -140 l-18 -24
-39 24 c-48 29 -52 30 -149 34 -56 2 -103 -2 -154 -16 -80 -20 -91 -17 -91 28
0 43 94 105 192 128 61 13 151 12 204 -3z"/>
<path d="M4961 7973 c-13 -10 -38 -30 -56 -45 -18 -16 -36 -28 -40 -28 -3 0
-12 -6 -19 -13 -8 -7 -84 -66 -170 -132 -143 -108 -175 -141 -135 -139 8 0 41
4 74 8 66 9 124 15 200 21 64 5 304 5 370 0 72 -6 150 -13 150 -15 0 -1 16 -3
35 -6 19 -2 45 -6 56 -9 12 -3 27 1 33 8 8 10 1 20 -30 43 -22 16 -46 34 -52
39 -58 49 -107 85 -115 85 -6 0 -12 4 -14 8 -2 6 -72 61 -186 147 -7 6 -22 18
-33 28 -10 9 -25 17 -32 17 -7 0 -23 -8 -36 -17z"/>
<path d="M4870 5690 c-48 -8 -102 -41 -95 -58 3 -8 5 -17 5 -21 0 -4 8 -7 18
-8 9 -1 40 -11 67 -24 63 -28 178 -35 219 -13 16 8 49 20 75 28 37 10 47 18
49 37 2 21 -4 28 -44 45 -38 17 -56 19 -93 12 -25 -5 -57 -10 -70 -13 -13 -2
-40 1 -60 8 -20 7 -52 10 -71 7z"/>
<path d="M4652 5384 c-12 -13 -7 -21 30 -60 24 -25 60 -63 81 -85 44 -46 108
-88 146 -97 14 -3 58 -6 97 -6 85 1 153 33 218 103 22 24 60 64 83 87 37 39
40 46 27 59 -8 8 -20 12 -27 10 -82 -27 -552 -27 -630 0 -7 2 -18 -2 -25 -11z"/>
</g>
</svg>
